<svg width="31" height="23" viewBox="0 0 31 23" fill="none" xmlns="http://www.w3.org/2000/svg">
<path d="M15.6779 22.5843C21.4715 22.5843 26.1683 17.8876 26.1683 12.0939C26.1683 6.30022 21.4715 1.60352 15.6779 1.60352C9.8842 1.60352 5.1875 6.30022 5.1875 12.0939C5.1875 17.8876 9.8842 22.5843 15.6779 22.5843Z" fill="#FF3333"/>
<path d="M25.6977 8.98438H24.0494L23.7408 10.0229L22.5447 10.3266C22.5447 10.3266 21.8115 11.0262 22.0046 11.2962C22.1974 11.5663 21.1556 12.8067 21.1556 12.8067L19.6895 12.4537C19.6895 12.4537 19.5738 12.7623 19.6895 13.1482C19.8053 13.5341 19.5865 13.8418 19.6381 14.3824C19.6895 14.9229 19.1494 14.4599 18.9566 15.0773C18.7637 15.6948 17.4902 15.8105 17.4902 16.2735C17.4902 16.7365 17.4902 17.0838 17.4902 17.0838C17.4902 17.0838 17.6831 17.0838 18.7248 17.0838C19.7666 17.0838 21.117 17.0838 21.117 17.0838C21.117 17.0838 22.4289 16.8136 22.5447 17.0838C22.6604 17.3539 23.3269 17.1224 23.148 17.7783C22.9702 18.4297 23.3656 19.2125 23.3711 19.2229C25.1053 17.3516 26.167 14.8479 26.167 12.0953C26.167 11.0121 26.0026 9.96734 25.6977 8.98438Z" fill="#A1C8E4"/>
<path d="M8.94969 9.50155C9.32959 8.86491 9.49581 7.9389 9.98776 8.16091C10.4797 8.38293 10.1021 9.18323 10.9716 9.50155C11.8412 9.81987 11.5504 11.7587 12.019 11.7587C12.4873 11.7587 13.5471 12.9452 13.7194 12.6641C13.8916 12.3831 14.7915 12.4532 14.7047 11.9323C14.6178 11.4115 15.7175 10.7748 15.3413 10.5433C14.9651 10.3118 14.4731 9.84881 14.2706 9.67518C14.068 9.50155 14.2706 8.80704 14.4731 8.16091C14.6757 7.51478 14.3863 7.24438 14.0101 7.04784C13.6339 6.85129 13.8076 6.23155 13.8365 6.1158C13.8655 6.00005 13.8076 5.53704 13.3446 5.07403C12.8816 4.61102 13.3446 3.77182 13.3446 3.39563C13.3446 3.02036 12.0261 2.26565 12.0194 2.26172C8.56423 3.54819 5.97231 6.60335 5.33984 10.3266C5.36392 10.3326 7.21132 10.8035 7.47223 10.7748C7.73498 10.7459 8.56979 10.1382 8.94969 9.50155Z" fill="#A1C8E4"/>
<path d="M18.8694 4.17607C18.5511 4.26289 18.2617 5.42041 18.0302 5.82554C17.7987 6.23067 17.6829 6.72262 18.117 7.48913C18.5511 8.25564 17.6829 8.66147 17.0463 9.28838C16.4096 9.91529 16.2471 9.92548 16.265 10.3253C16.2939 10.9763 16.9305 10.5714 17.3067 10.745C17.6829 10.9186 17.9723 10.6582 18.0881 10.0216C18.2038 9.38492 18.8115 9.26917 19.1877 9.28838C19.5639 9.3076 20.2295 9.2981 20.895 8.6904C21.5606 8.08271 21.0976 7.53288 21.4159 7.21457C21.7342 6.89625 22.4577 7.04094 23.1478 6.97079C23.6002 6.92472 24.0817 6.49783 24.3607 6.20822C23.3323 4.69395 21.9183 3.46304 20.2598 2.65625C20.0727 2.80488 19.8676 3.02735 19.5928 3.19218C19.1588 3.45262 19.1877 4.08926 18.8694 4.17607Z" fill="#A1C8E4"/>
<path d="M13.6656 14.3814C13.6656 10.5561 10.5646 7.45508 6.73927 7.45508C6.57768 7.45508 6.41795 7.46272 6.25936 7.4736C5.57388 8.86795 5.1875 10.4357 5.1875 12.0944C5.1875 15.6397 6.94785 18.7719 9.64048 20.6707C12.0162 19.5729 13.6656 17.1706 13.6656 14.3814Z" fill="#1591E0"/>
<path d="M13.6656 14.3814C13.6656 10.5561 10.5646 7.45508 6.73927 7.45508C6.57768 7.45508 6.41795 7.46272 6.25936 7.4736C5.57388 8.86795 5.1875 10.4357 5.1875 12.0944C5.1875 15.6397 6.94785 18.7719 9.64048 20.6707C12.0162 19.5729 13.6656 17.1706 13.6656 14.3814Z" fill="#FF8A8A"/>
<path d="M18.3558 1.94922L15.418 6.727H24.692L22.815 2.21244L18.6187 2.02191L18.3558 1.94922Z" fill="#1591E0"/>
<path d="M6.7373 20.5722C10.1562 20.5722 12.9277 17.8007 12.9277 14.3818C12.9277 10.9629 10.1562 8.19141 6.7373 8.19141C3.31842 8.19141 0.546875 10.9629 0.546875 14.3818C0.546875 17.8007 3.31842 20.5722 6.7373 20.5722Z" fill="#363C50"/>
<path d="M6.73716 19.4743C9.54974 19.4743 11.8298 17.1943 11.8298 14.3817C11.8298 11.5691 9.54974 9.28906 6.73716 9.28906C3.92458 9.28906 1.64453 11.5691 1.64453 14.3817C1.64453 17.1943 3.92458 19.4743 6.73716 19.4743Z" fill="white"/>
<path d="M7.92167 7.49023H5.54297V8.83203H7.92167V7.49023Z" fill="#363C50"/>
<path d="M6.73815 3.80078C5.86237 3.80078 5.15234 4.5108 5.15234 5.38658C5.15234 6.26236 5.86237 6.97238 6.73815 6.97238C7.61393 6.97238 8.32395 6.26236 8.32395 5.38658C8.32395 4.5108 7.61393 3.80078 6.73815 3.80078ZM6.73815 6.43391C6.15985 6.43391 5.69105 5.96511 5.69105 5.38681C5.69105 4.80851 6.15985 4.33949 6.73815 4.33949C7.31645 4.33949 7.78524 4.80828 7.78524 5.38681C7.78524 5.96488 7.31645 6.43391 6.73815 6.43391Z" fill="#363C50"/>
<path d="M7.09013 6.60547H6.38867V7.48982H7.09013V6.60547Z" fill="#363C50"/>
<path d="M6.38653 10.3262C6.38653 10.3262 7.4452 15.2866 6.38653 15.2866C5.32787 15.2866 6.38653 10.3262 6.38653 10.3262Z" fill="#363C50"/>
<path d="M8.94496 12.6641C8.94496 12.6641 6.76836 15.9843 6.07894 15.1807C5.38952 14.3772 8.94496 12.6641 8.94496 12.6641Z" fill="#363C50"/>
<path d="M16.043 6.43307H30.2538V0.689453H19.3975L16.043 6.43307Z" fill="#282B2E"/>
<path d="M22.3045 4.94933H20.3194V4.46271L20.9873 3.78741C21.1783 3.58786 21.3028 3.4515 21.3616 3.37834C21.4202 3.30565 21.4609 3.24268 21.4841 3.19036C21.5072 3.13781 21.5186 3.08294 21.5186 3.02553C21.5186 2.95446 21.4954 2.8982 21.4494 2.85699C21.4031 2.81579 21.3382 2.79518 21.2547 2.79518C21.1686 2.79518 21.0815 2.81972 20.9935 2.86903C20.9056 2.91834 20.806 2.99104 20.6951 3.08688L20.2891 2.6116C20.43 2.48566 20.5486 2.39538 20.6447 2.3412C20.7407 2.28703 20.8451 2.2456 20.9581 2.21689C21.0711 2.18818 21.1979 2.17383 21.3389 2.17383C21.5163 2.17383 21.6742 2.20508 21.8133 2.26712C21.9524 2.32963 22.0603 2.41853 22.1369 2.53382C22.2136 2.6491 22.252 2.77875 22.252 2.92205C22.252 3.02947 22.2386 3.12855 22.2117 3.21953C22.1848 3.31051 22.1434 3.40011 22.0874 3.48808C22.0311 3.57605 21.9568 3.66841 21.8638 3.76588C21.7709 3.86311 21.5728 4.04786 21.2697 4.31964V4.33839H22.3045V4.94933Z" fill="white"/>
<path d="M24.6354 4.41912H24.334V4.94858H23.6045V4.41912H22.5137V3.87648L23.6511 2.21289H24.334V3.86698H24.6354V4.41912ZM23.6045 3.86698V3.54913C23.6045 3.48917 23.6066 3.40861 23.611 3.30675C23.6154 3.20512 23.6186 3.15164 23.6212 3.14678H23.6006C23.558 3.24285 23.5101 3.33268 23.4566 3.41625L23.1533 3.86698H23.6045Z" fill="white"/>
<path d="M28.3266 4.9503H27.584V3.83514H26.7251V4.9503H25.9824V2.21484H26.7251V3.22906H27.584V2.21484H28.3266V4.9503Z" fill="white"/>
</svg>
