<svg width="31" height="19" viewBox="0 0 31 19" fill="none" xmlns="http://www.w3.org/2000/svg">
<path d="M28.1801 13.3926H1.72852V16.3811H28.1801V13.3926Z" fill="#282B2E"/>
<path d="M26.6609 13.3926H1.72852V13.9044H26.6609V13.3926Z" fill="#282B2E"/>
<path d="M20.3125 2.57617L28.5398 3.39587C28.9578 3.43749 29.2861 3.77225 29.32 4.19105L29.7901 10.0394C29.7901 10.0394 30.3515 10.2045 30.3515 10.898C30.3515 11.5914 30.3515 16.3798 30.3515 16.3798H26.653L25.5962 13.3748H20.3125V2.57617Z" fill="#FF0000"/>
<path d="M29.2839 4.01758L28.8789 4.21229L29.0814 9.89217L29.7869 10.0408L29.2839 4.01758Z" fill="#363C50"/>
<path d="M20.3105 0.677734H0.0507812V13.3915H20.3105V0.677734Z" fill="#282B2E"/>
<path d="M9.92115 18.6587C11.1796 18.6587 12.1997 17.6385 12.1997 16.3801C12.1997 15.1217 11.1796 14.1016 9.92115 14.1016C8.66273 14.1016 7.64258 15.1217 7.64258 16.3801C7.64258 17.6385 8.66273 18.6587 9.92115 18.6587Z" fill="#363C50"/>
<path d="M9.9196 17.8431C10.7274 17.8431 11.3822 17.1883 11.3822 16.3805C11.3822 15.5728 10.7274 14.918 9.9196 14.918C9.11185 14.918 8.45703 15.5728 8.45703 16.3805C8.45703 17.1883 9.11185 17.8431 9.9196 17.8431Z" fill="white"/>
<path d="M9.91932 16.6238C10.0538 16.6238 10.1629 16.5148 10.1629 16.3803C10.1629 16.2458 10.0538 16.1367 9.91932 16.1367C9.78482 16.1367 9.67578 16.2458 9.67578 16.3803C9.67578 16.5148 9.78482 16.6238 9.91932 16.6238Z" fill="#363C50"/>
<path d="M9.91426 15.8695C9.96398 15.8695 10.0043 15.8292 10.0043 15.7795C10.0043 15.7298 9.96398 15.6895 9.91426 15.6895C9.86453 15.6895 9.82422 15.7298 9.82422 15.7795C9.82422 15.8292 9.86453 15.8695 9.91426 15.8695Z" fill="#363C50"/>
<path d="M9.91426 17.0707C9.96398 17.0707 10.0043 17.0304 10.0043 16.9807C10.0043 16.9309 9.96398 16.8906 9.91426 16.8906C9.86453 16.8906 9.82422 16.9309 9.82422 16.9807C9.82422 17.0304 9.86453 17.0707 9.91426 17.0707Z" fill="#363C50"/>
<path d="M10.5158 16.4691C10.5655 16.4691 10.6059 16.4288 10.6059 16.3791C10.6059 16.3294 10.5655 16.2891 10.5158 16.2891C10.4661 16.2891 10.4258 16.3294 10.4258 16.3791C10.4258 16.4288 10.4661 16.4691 10.5158 16.4691Z" fill="#363C50"/>
<path d="M9.31855 16.4691C9.36828 16.4691 9.40859 16.4288 9.40859 16.3791C9.40859 16.3294 9.36828 16.2891 9.31855 16.2891C9.26883 16.2891 9.22852 16.3294 9.22852 16.3791C9.22852 16.4288 9.26883 16.4691 9.31855 16.4691Z" fill="#363C50"/>
<path d="M10.34 16.0453C10.3898 16.0453 10.4301 16.005 10.4301 15.9553C10.4301 15.9055 10.3898 15.8652 10.34 15.8652C10.2903 15.8652 10.25 15.9055 10.25 15.9553C10.25 16.005 10.2903 16.0453 10.34 16.0453Z" fill="#363C50"/>
<path d="M9.49433 16.8949C9.54406 16.8949 9.58437 16.8546 9.58437 16.8049C9.58437 16.7552 9.54406 16.7148 9.49433 16.7148C9.44461 16.7148 9.4043 16.7552 9.4043 16.8049C9.4043 16.8546 9.44461 16.8949 9.49433 16.8949Z" fill="#363C50"/>
<path d="M9.49433 16.0453C9.54406 16.0453 9.58437 16.005 9.58437 15.9553C9.58437 15.9055 9.54406 15.8652 9.49433 15.8652C9.44461 15.8652 9.4043 15.9055 9.4043 15.9553C9.4043 16.005 9.44461 16.0453 9.49433 16.0453Z" fill="#363C50"/>
<path d="M10.34 16.8949C10.3898 16.8949 10.4301 16.8546 10.4301 16.8049C10.4301 16.7552 10.3898 16.7148 10.34 16.7148C10.2903 16.7148 10.25 16.7552 10.25 16.8049C10.25 16.8546 10.2903 16.8949 10.34 16.8949Z" fill="#363C50"/>
<path d="M9.92514 17.5397C10.5655 17.5397 11.0847 17.0206 11.0847 16.3802C11.0847 15.7398 10.5655 15.2207 9.92514 15.2207C9.28476 15.2207 8.76562 15.7398 8.76562 16.3802C8.76562 17.0206 9.28476 17.5397 9.92514 17.5397Z" stroke="#363C50" stroke-width="0.0193587" stroke-miterlimit="10"/>
<path d="M4.78833 18.6587C6.04675 18.6587 7.0669 17.6385 7.0669 16.3801C7.0669 15.1217 6.04675 14.1016 4.78833 14.1016C3.52991 14.1016 2.50977 15.1217 2.50977 16.3801C2.50977 17.6385 3.52991 18.6587 4.78833 18.6587Z" fill="#363C50"/>
<path d="M4.78679 17.8431C5.59454 17.8431 6.24936 17.1883 6.24936 16.3805C6.24936 15.5728 5.59454 14.918 4.78679 14.918C3.97903 14.918 3.32422 15.5728 3.32422 16.3805C3.32422 17.1883 3.97903 17.8431 4.78679 17.8431Z" fill="white"/>
<path d="M4.7865 16.6238C4.921 16.6238 5.03004 16.5148 5.03004 16.3803C5.03004 16.2458 4.921 16.1367 4.7865 16.1367C4.652 16.1367 4.54297 16.2458 4.54297 16.3803C4.54297 16.5148 4.652 16.6238 4.7865 16.6238Z" fill="#363C50"/>
<path d="M4.78925 15.8695C4.83898 15.8695 4.87929 15.8292 4.87929 15.7795C4.87929 15.7298 4.83898 15.6895 4.78925 15.6895C4.73953 15.6895 4.69922 15.7298 4.69922 15.7795C4.69922 15.8292 4.73953 15.8695 4.78925 15.8695Z" fill="#363C50"/>
<path d="M4.78925 17.0707C4.83898 17.0707 4.87929 17.0304 4.87929 16.9807C4.87929 16.9309 4.83898 16.8906 4.78925 16.8906C4.73953 16.8906 4.69922 16.9309 4.69922 16.9807C4.69922 17.0304 4.73953 17.0707 4.78925 17.0707Z" fill="#363C50"/>
<path d="M5.39082 16.4691C5.44054 16.4691 5.48085 16.4288 5.48085 16.3791C5.48085 16.3294 5.44054 16.2891 5.39082 16.2891C5.34109 16.2891 5.30078 16.3294 5.30078 16.3791C5.30078 16.4288 5.34109 16.4691 5.39082 16.4691Z" fill="#363C50"/>
<path d="M4.19355 16.4691C4.24328 16.4691 4.28359 16.4288 4.28359 16.3791C4.28359 16.3294 4.24328 16.2891 4.19355 16.2891C4.14383 16.2891 4.10352 16.3294 4.10352 16.3791C4.10352 16.4288 4.14383 16.4691 4.19355 16.4691Z" fill="#363C50"/>
<path d="M5.20527 16.0453C5.25499 16.0453 5.29531 16.005 5.29531 15.9553C5.29531 15.9055 5.25499 15.8652 5.20527 15.8652C5.15554 15.8652 5.11523 15.9055 5.11523 15.9553C5.11523 16.005 5.15554 16.0453 5.20527 16.0453Z" fill="#363C50"/>
<path d="M4.35957 16.8949C4.40929 16.8949 4.4496 16.8546 4.4496 16.8049C4.4496 16.7552 4.40929 16.7148 4.35957 16.7148C4.30984 16.7148 4.26953 16.7552 4.26953 16.8049C4.26953 16.8546 4.30984 16.8949 4.35957 16.8949Z" fill="#363C50"/>
<path d="M4.35957 16.0453C4.40929 16.0453 4.4496 16.005 4.4496 15.9553C4.4496 15.9055 4.40929 15.8652 4.35957 15.8652C4.30984 15.8652 4.26953 15.9055 4.26953 15.9553C4.26953 16.005 4.30984 16.0453 4.35957 16.0453Z" fill="#363C50"/>
<path d="M5.20527 16.8949C5.25499 16.8949 5.29531 16.8546 5.29531 16.8049C5.29531 16.7552 5.25499 16.7148 5.20527 16.7148C5.15554 16.7148 5.11523 16.7552 5.11523 16.8049C5.11523 16.8546 5.15554 16.8949 5.20527 16.8949Z" fill="#363C50"/>
<path d="M4.79233 17.5397C5.43271 17.5397 5.95184 17.0206 5.95184 16.3802C5.95184 15.7398 5.43271 15.2207 4.79233 15.2207C4.15194 15.2207 3.63281 15.7398 3.63281 16.3802C3.63281 17.0206 4.15194 17.5397 4.79233 17.5397Z" stroke="#363C50" stroke-width="0.0193587" stroke-miterlimit="10"/>
<path d="M23.2571 18.6587C24.5155 18.6587 25.5357 17.6385 25.5357 16.3801C25.5357 15.1217 24.5155 14.1016 23.2571 14.1016C21.9987 14.1016 20.9785 15.1217 20.9785 16.3801C20.9785 17.6385 21.9987 18.6587 23.2571 18.6587Z" fill="#363C50"/>
<path d="M23.2555 17.8431C24.0633 17.8431 24.7181 17.1883 24.7181 16.3805C24.7181 15.5728 24.0633 14.918 23.2555 14.918C22.4478 14.918 21.793 15.5728 21.793 16.3805C21.793 17.1883 22.4478 17.8431 23.2555 17.8431Z" fill="white"/>
<path d="M23.2553 16.6238C23.3898 16.6238 23.4988 16.5148 23.4988 16.3803C23.4988 16.2458 23.3898 16.1367 23.2553 16.1367C23.1208 16.1367 23.0117 16.2458 23.0117 16.3803C23.0117 16.5148 23.1208 16.6238 23.2553 16.6238Z" fill="#363C50"/>
<path d="M23.26 15.8695C23.3097 15.8695 23.35 15.8292 23.35 15.7795C23.35 15.7298 23.3097 15.6895 23.26 15.6895C23.2102 15.6895 23.1699 15.7298 23.1699 15.7795C23.1699 15.8292 23.2102 15.8695 23.26 15.8695Z" fill="#363C50"/>
<path d="M23.26 17.0707C23.3097 17.0707 23.35 17.0304 23.35 16.9807C23.35 16.9309 23.3097 16.8906 23.26 16.8906C23.2102 16.8906 23.1699 16.9309 23.1699 16.9807C23.1699 17.0304 23.2102 17.0707 23.26 17.0707Z" fill="#363C50"/>
<path d="M23.8518 16.4691C23.9015 16.4691 23.9418 16.4288 23.9418 16.3791C23.9418 16.3294 23.9015 16.2891 23.8518 16.2891C23.802 16.2891 23.7617 16.3294 23.7617 16.3791C23.7617 16.4288 23.802 16.4691 23.8518 16.4691Z" fill="#363C50"/>
<path d="M22.6545 16.4691C22.7042 16.4691 22.7445 16.4288 22.7445 16.3791C22.7445 16.3294 22.7042 16.2891 22.6545 16.2891C22.6048 16.2891 22.5645 16.3294 22.5645 16.3791C22.5645 16.4288 22.6048 16.4691 22.6545 16.4691Z" fill="#363C50"/>
<path d="M23.6818 16.0453C23.7316 16.0453 23.7719 16.005 23.7719 15.9553C23.7719 15.9055 23.7316 15.8652 23.6818 15.8652C23.6321 15.8652 23.5918 15.9055 23.5918 15.9553C23.5918 16.005 23.6321 16.0453 23.6818 16.0453Z" fill="#363C50"/>
<path d="M22.8361 16.8949C22.8859 16.8949 22.9262 16.8546 22.9262 16.8049C22.9262 16.7552 22.8859 16.7148 22.8361 16.7148C22.7864 16.7148 22.7461 16.7552 22.7461 16.8049C22.7461 16.8546 22.7864 16.8949 22.8361 16.8949Z" fill="#363C50"/>
<path d="M22.8361 16.0453C22.8859 16.0453 22.9262 16.005 22.9262 15.9553C22.9262 15.9055 22.8859 15.8652 22.8361 15.8652C22.7864 15.8652 22.7461 15.9055 22.7461 15.9553C22.7461 16.005 22.7864 16.0453 22.8361 16.0453Z" fill="#363C50"/>
<path d="M23.6818 16.8949C23.7316 16.8949 23.7719 16.8546 23.7719 16.8049C23.7719 16.7552 23.7316 16.7148 23.6818 16.7148C23.6321 16.7148 23.5918 16.7552 23.5918 16.8049C23.5918 16.8546 23.6321 16.8949 23.6818 16.8949Z" fill="#363C50"/>
<path d="M23.2611 17.5397C23.9015 17.5397 24.4206 17.0206 24.4206 16.3802C24.4206 15.7398 23.9015 15.2207 23.2611 15.2207C22.6207 15.2207 22.1016 15.7398 22.1016 16.3802C22.1016 17.0206 22.6207 17.5397 23.2611 17.5397Z" stroke="#363C50" stroke-width="0.0193587" stroke-miterlimit="10"/>
<path d="M13.7655 17.6016H19.1704C19.4972 17.6016 19.7621 17.3366 19.7621 17.0099V14.8085C19.7621 14.4817 19.4972 14.2168 19.1704 14.2168H13.7655C13.4388 14.2168 13.1738 14.4817 13.1738 14.8085V17.0101C13.1738 17.3368 13.4388 17.6016 13.7655 17.6016Z" fill="#363C50"/>
<path d="M26.9564 4.42195L22.7891 4.1543V9.38018L28.297 9.83827L28.1883 5.73552C28.1883 5.04149 27.6493 4.4665 26.9564 4.42195Z" fill="#363C50"/>
<path d="M30.3504 10.8984H29.7891V12.2853L30.3504 12.9129V10.8984Z" fill="#282B2E"/>
<path d="M29.881 11.002H20.3125" stroke="#282B2E" stroke-width="0.0387175" stroke-miterlimit="10"/>
<path d="M30.6365 14.7461H29.1504V16.8054H30.6365V14.7461Z" fill="#363C50"/>
<path d="M2.09548 14.7461H0.609375V16.8054H2.09548V14.7461Z" fill="#363C50"/>
<path d="M19.4771 15.2207H13.4512V15.6893H19.4771V15.2207Z" fill="white"/>
</svg>
