<svg width="71" height="71" viewBox="0 0 71 71" fill="none" xmlns="http://www.w3.org/2000/svg">
<g clip-path="url(#clip0_1380_9063)">
<path d="M61.7406 66.1146C61.7406 67.3217 60.761 68.3014 59.5539 68.3014H42.0596V51.9005C42.0596 51.2959 41.5708 50.8071 40.9662 50.8071H30.0323C29.4276 50.8071 28.9389 51.2959 28.9389 51.9005V68.3014H11.4446C10.2375 68.3014 9.25781 67.3217 9.25781 66.1146V34.8556L35.5091 8.60547L61.7406 34.837V66.1146Z" fill="#FF0000"/>
<path d="M15.8203 7.07227H20.1939V14.2897L15.8203 18.6546V7.07227Z" fill="#FF0000"/>
<path d="M39.876 52.9941H31.1289V68.3016H39.876V52.9941Z" fill="#F9EBB2"/>
<path d="M67.2094 36.5944C66.9076 36.5944 66.5511 36.555 66.3543 36.3571L36.2839 6.28664C36.0706 6.07343 35.7907 5.96627 35.5108 5.96627C35.2309 5.96627 34.951 6.07343 34.7378 6.28664L4.65748 36.368C4.45958 36.5659 4.09439 36.5944 3.79261 36.5944C3.18797 36.5944 2.69922 36.1056 2.69922 35.501C2.69922 35.1992 2.71671 34.8209 2.91462 34.623L34.4459 3.14751C34.4459 3.14751 34.8537 2.69922 35.5108 2.69922C36.1679 2.69922 36.5845 3.13439 36.5845 3.13439L68.0808 34.6295C68.2787 34.8275 68.3027 35.1992 68.3027 35.501C68.3027 36.1045 67.814 36.5944 67.2094 36.5944Z" fill="#FF0000"/>
<path d="M69.6261 33.0828L38.166 1.62151C38.166 1.62151 37.1414 0.511719 35.509 0.511719C33.8766 0.511719 32.9111 1.59527 32.9111 1.59527L22.3796 12.106V5.97868C22.3796 5.37403 21.8908 4.88529 21.2862 4.88529H14.7258C14.1212 4.88529 13.6324 5.37403 13.6324 5.97868V20.8368L1.36784 33.0762C0.774133 33.6699 0.511719 34.5949 0.511719 35.5003C0.511719 37.3109 1.98014 38.7804 3.7919 38.7804C4.69722 38.7804 5.60911 38.506 6.20282 37.9123L7.07207 37.043V66.1152C7.07207 68.5327 9.02815 70.4888 11.4456 70.4888H59.5549C61.9724 70.4888 63.9285 68.5327 63.9285 66.1152V37.0245L64.8075 37.9035C65.4013 38.4951 66.3033 38.7804 67.2086 38.7804C69.0204 38.7804 70.4888 37.312 70.4888 35.5003C70.4888 34.5938 70.2198 33.6765 69.6261 33.0828ZM15.8192 7.07207H20.1928V14.2896L15.8192 18.6544V7.07207ZM39.8738 68.302H31.1267V52.9945H39.8738V68.302ZM61.7417 66.1152C61.7417 67.3223 60.762 68.302 59.5549 68.302H42.0606V51.9011C42.0606 51.2965 41.5719 50.8078 40.9672 50.8078H30.0333C29.4287 50.8078 28.9399 51.2965 28.9399 51.9011V68.302H11.4456C10.2385 68.302 9.25886 67.3223 9.25886 66.1152V34.8563L35.5101 8.6061L61.7417 34.8377V66.1152ZM67.2086 36.5937C66.9069 36.5937 66.5504 36.5543 66.3536 36.3564L36.2831 6.28592C36.0699 6.07271 35.79 5.96556 35.5101 5.96556C35.2302 5.96556 34.9503 6.07271 34.7371 6.28592L4.65677 36.3673C4.45886 36.5652 4.09367 36.5937 3.7919 36.5937C3.18725 36.5937 2.6985 36.1049 2.6985 35.5003C2.6985 35.1985 2.716 34.8202 2.9139 34.6223L34.4451 3.14679C34.4451 3.14679 34.853 2.6985 35.5101 2.6985C36.1672 2.6985 36.5838 3.13367 36.5838 3.13367L68.0801 34.6288C68.278 34.8267 68.302 35.1985 68.302 35.5003C68.302 36.1038 67.8133 36.5937 67.2086 36.5937Z" fill="#FF0000"/>
<path d="M25.6608 35.5H16.9137C16.3091 35.5 15.8203 35.9887 15.8203 36.5934V45.3405C15.8203 45.9452 16.3091 46.4339 16.9137 46.4339H25.6608C26.2655 46.4339 26.7542 45.9452 26.7542 45.3405V36.5934C26.7542 35.9887 26.2655 35.5 25.6608 35.5ZM24.5674 44.2471H18.0071V37.6868H24.5674V44.2471Z" fill="#FF0000"/>
<path d="M45.3395 46.4339H54.0866C54.6913 46.4339 55.18 45.9452 55.18 45.3405V36.5934C55.18 35.9887 54.6913 35.5 54.0866 35.5H45.3395C44.7348 35.5 44.2461 35.9887 44.2461 36.5934V45.3405C44.2461 45.9452 44.7348 46.4339 45.3395 46.4339ZM46.4329 37.6868H52.9932V44.2471H46.4329V37.6868Z" fill="#FF0000"/>
<path d="M39.876 52.9941H31.1289V68.3016H39.876V52.9941Z" fill="#FFE6E6"/>
<path d="M24.5682 37.6875H18.0078V44.2479H24.5682V37.6875Z" fill="#FF0000"/>
<path d="M52.9979 37.6875H46.4375V44.2479H52.9979V37.6875Z" fill="#FF0000"/>
</g>
<defs>
<clipPath id="clip0_1380_9063">
<rect width="69.9771" height="69.9771" fill="white" transform="translate(0.511719 0.511719)"/>
</clipPath>
</defs>
</svg>
