<svg width="72" height="72" viewBox="0 0 72 72" fill="none" xmlns="http://www.w3.org/2000/svg">
<g clip-path="url(#clip0_1380_9096)">
<path d="M62.4963 66.9123V18.336H49.2482V5.08789H9.50394V66.9123H0.671875V71.3283H31.5841V58.0803H40.4161V71.3283H71.3284V66.9123H62.4963ZM27.1681 49.2482H18.336V40.4161H27.1681V49.2482ZM27.1681 36.0001H18.336V27.168H27.1681V36.0001ZM27.1681 22.752H18.336V13.92H27.1681V22.752ZM40.4161 49.2482H31.5841V40.4161H40.4161V49.2482ZM40.4161 36.0001H31.5841V27.168H40.4161V36.0001ZM40.4161 22.752H31.5841V13.92H40.4161V22.752ZM58.0803 49.2482H49.2482V40.4161H58.0803V49.2482ZM58.0803 36.0001H49.2482V27.168H58.0803V36.0001Z" fill="#FF0000"/>
</g>
<defs>
<clipPath id="clip0_1380_9096">
<rect width="70.6565" height="70.6565" fill="white" transform="translate(0.671875 0.671875)"/>
</clipPath>
</defs>
</svg>
