<svg width="28" height="25" viewBox="0 0 28 25" fill="none" xmlns="http://www.w3.org/2000/svg">
<path d="M21.4322 0.595703H0.484375V14.276H21.4322V0.595703Z" fill="#282B2E"/>
<path d="M20.3453 1.62695H1.5V13.2431H20.3453V1.62695Z" fill="#FF3333"/>
<path d="M16.145 2.75H9.6875V5.7427H16.145V2.75Z" fill="white"/>
<path d="M13.1506 14.2754H8.76758V19.3522H13.1506V14.2754Z" fill="#282B2E"/>
<path d="M14.0625 18.5566H7.85742V19.3766H14.0625V18.5566Z" fill="#282B2E"/>
<path d="M6.51958 16.9509H3.79688V13.261C3.79688 12.6337 4.3056 12.125 4.93291 12.125H5.38355C6.01086 12.125 6.51958 12.6337 6.51958 13.261V16.9509Z" fill="#F2DBAF"/>
<path d="M8.37832 2.75H2.76953V3.01423H8.37832V2.75Z" fill="white"/>
<path d="M8.37832 3.54688H2.76953V3.8111H8.37832V3.54688Z" fill="white"/>
<path d="M8.37832 4.3457H2.76953V4.60993H8.37832V4.3457Z" fill="white"/>
<path d="M8.37832 5.14258H2.76953V5.4068H8.37832V5.14258Z" fill="white"/>
<path d="M8.37832 5.93945H2.76953V6.20368H8.37832V5.93945Z" fill="white"/>
<path d="M8.37832 6.73633H2.76953V7.00055H8.37832V6.73633Z" fill="white"/>
<path d="M8.37832 7.5332H2.76953V7.79743H8.37832V7.5332Z" fill="white"/>
<path d="M8.37832 8.33008H2.76953V8.5943H8.37832V8.33008Z" fill="white"/>
<path d="M8.37832 9.12695H2.76953V9.39118H8.37832V9.12695Z" fill="white"/>
<path d="M8.37832 9.92383H2.76953V10.1881H8.37832V9.92383Z" fill="white"/>
<path d="M8.37832 10.7207H2.76953V10.9849H8.37832V10.7207Z" fill="white"/>
<path d="M8.37832 11.5176H2.76953V11.7818H8.37832V11.5176Z" fill="white"/>
<path d="M21.4389 4.81098V4.03516H17.664V4.81098H13.8984C13.3579 4.81098 12.9199 5.24899 12.9199 5.78941V14.2317H21.4527V4.81098H21.4389Z" fill="#FFB0B0"/>
<path d="M26.9255 24.8021H14.1388C13.7817 24.8021 13.4922 24.5126 13.4922 24.1555V5.95128C13.4922 5.59418 13.7817 5.30469 14.1388 5.30469H26.9255C27.2826 5.30469 27.5721 5.59418 27.5721 5.95128V24.1557C27.5721 24.5126 27.2826 24.8021 26.9255 24.8021Z" fill="#FF8A8A"/>
<path d="M26.6835 6.10156H14.4199V23.7224H26.6835V6.10156Z" fill="white"/>
<path d="M23.9835 4.44141H17.9844V6.92073H23.9835V4.44141Z" fill="#282B2E"/>
<path d="M21.726 3.81055H20.5527V4.44141H21.726V3.81055Z" fill="#363C50"/>
<path d="M18.3049 7.92773H15.6484V10.5842H18.3049V7.92773Z" fill="#FF3333"/>
<path d="M25.2172 12.3438H18.3105V12.6093H25.2172V12.3438Z" fill="#363C50"/>
<path d="M25.2172 13.7617H18.3105V14.0273H25.2172V13.7617Z" fill="#363C50"/>
<path d="M25.2172 15.1777H18.3105V15.4433H25.2172V15.1777Z" fill="#363C50"/>
<path d="M25.2172 16.5938H18.3105V16.8593H25.2172V16.5938Z" fill="#363C50"/>
<path d="M25.2172 18.0117H18.3105V18.2773H25.2172V18.0117Z" fill="#363C50"/>
<path d="M25.2172 19.4277H18.3105V19.6933H25.2172V19.4277Z" fill="#363C50"/>
<path d="M25.2172 20.8457H18.3105V21.1113H25.2172V20.8457Z" fill="#363C50"/>
<path d="M15.6484 12.2452L16.0966 13.1086L17.6572 11.5645L16.2128 12.4777L15.6484 12.2452Z" fill="#FF3333"/>
<path d="M15.6484 13.9346L16.0966 14.798L17.6572 13.2539L16.2128 14.1672L15.6484 13.9346Z" fill="#FF3333"/>
<path d="M15.6484 15.6258L16.0966 16.4892L17.6572 14.9453L16.2128 15.8584L15.6484 15.6258Z" fill="#FF3333"/>
<path d="M15.6484 17.3175L16.0966 18.1806L17.6572 16.6367L16.2128 17.5498L15.6484 17.3175Z" fill="#FF3333"/>
<path d="M15.6484 19.0069L16.0966 19.8703L17.6572 18.3262L16.2128 19.2392L15.6484 19.0069Z" fill="#FF3333"/>
<path d="M15.6484 20.6983L16.0966 21.5617L17.6572 20.0176L16.2128 20.9308L15.6484 20.6983Z" fill="#FF3333"/>
<path d="M3.79471 15.5898H0.650391V22.8729H3.79471V15.5898Z" fill="#FF0000"/>
<path d="M8.87548 22.8729H3.79492V15.5898H8.87548C9.57373 15.5898 10.1399 16.156 10.1399 16.8542V21.6085C10.1399 22.3067 9.57373 22.8729 8.87548 22.8729Z" fill="#F2DBAF"/>
</svg>
