<svg width="396" height="352" viewBox="0 0 396 352" fill="none" xmlns="http://www.w3.org/2000/svg">
<rect width="396" height="352" rx="15" fill="white"/>
<path opacity="0.3" d="M353 291.197C337.55 280.256 69.5206 280.087 44 291.197C65.7705 301.619 334.334 302.139 353 291.197Z" fill="#431F00"/>
<path d="M312.366 290.551L322.324 71.7085L304.346 53L84.3242 86.077L98.1449 290.551H312.366Z" fill="#DB712A"/>
<path opacity="0.3" d="M290.428 290.55H312.381L322.339 71.7082L304.361 53.0137L302.394 53.3086C300.583 86.9054 292.97 228.778 290.428 290.55Z" fill="#673B00"/>
<path opacity="0.7" d="M90.9961 90.9938L107.907 283.009L284.121 284.119L295.062 60.0938L90.9961 90.9938Z" fill="#673B00"/>
<path d="M99.8301 242.009L292.604 226.826V230.464L100.49 245.436L99.8301 242.009Z" fill="#DB712A"/>
<path d="M94.2129 130.883L296.116 113.41V117.596L94.9152 134.829L94.2129 130.883Z" fill="#DB712A"/>
<path d="M96.3613 190.842L290.905 173.805V177.709L97.0215 194.522L96.3613 190.842Z" fill="#DB712A"/>
<path d="M103.693 143.607L111.418 189.606L148.99 186.797L146.883 145.714L136.7 140.096L103.693 143.607Z" fill="url(#paint0_linear_662_276)"/>
<path d="M136.7 140.096L103.693 143.607L116.685 189.255L142.445 187.274L136.967 140.236L136.7 140.096Z" fill="#F2E3A5"/>
<path d="M143.723 165.841L146.644 187.022L171.111 184.339L171.575 163.973L165.03 161.389L143.723 165.841Z" fill="#564332"/>
<path d="M260.65 142.16L262.575 156.037L278.6 154.267L278.909 140.938L274.612 139.238L260.65 142.16Z" fill="#282B2E"/>
<path d="M112.063 241.224L106.908 216.167L132.654 211.953L140.617 218.274L139.676 238.639L112.063 241.224Z" fill="url(#paint1_linear_662_276)"/>
<path d="M132.655 211.953L112.289 215.24L113.876 241.041L133.399 239.229L133.526 212.641L132.655 211.953Z" fill="#F2E3A5"/>
<path d="M147.584 165.027L150.562 186.447L163.764 185.14L164.481 161.502L147.584 165.027Z" fill="#F2E3A5"/>
<path d="M138.568 225.772L139.032 238.877L154.482 238.413L155.886 226.236L148.864 224.129L138.568 225.772Z" fill="#6F7173"/>
<path d="M220.959 283.107L223.585 261.744L244.878 261.983L247.364 267.362L245.089 283.824L220.959 283.107Z" fill="#FF3333"/>
<path d="M115.632 282.658L113.764 255.269L134.593 251.982L143.484 255.733L145.127 283.36L115.632 282.658Z" fill="#FF0000"/>
<path d="M151.448 283.121L149.58 257.375L173.921 254.566L180.002 261.35L178.837 284.062L151.448 283.121Z" fill="url(#paint2_linear_662_276)"/>
<path d="M251.409 283.121L249.527 257.375L273.882 254.566L279.964 261.35L278.798 284.062L251.409 283.121Z" fill="url(#paint3_linear_662_276)"/>
<path opacity="0.3" d="M165.029 261.589L163.751 255.732L155.253 256.716L155.197 263.921L165.029 261.589Z" fill="#431F00"/>
<path d="M150.745 237.712L150.506 262.291L160.338 259.946L155.422 237.234L150.745 237.712Z" fill="#EA5D49"/>
<path d="M153.048 237.473L150.744 237.711L151.208 259.707L155.899 256.673L153.048 237.473Z" fill="#F2E3A5"/>
<path d="M141.265 226.588L140.787 238.526L147.585 237.936L146.883 224.537L141.265 226.588Z" fill="#F2E3A5"/>
<path d="M134.593 251.982L113.764 255.269L118.68 259.483L135.295 261.351L134.874 252.109L134.593 251.982Z" fill="#F2E3A5"/>
<path d="M155.197 279.372L161.981 265.326L168.063 262.756L166.897 280.776L155.197 279.372Z" fill="#F2E3A5"/>
<path d="M102.049 99.5896L105.56 130.026L134.831 127.217L133.188 98.4238L122.654 95.8535L102.049 99.5896Z" fill="url(#paint4_linear_662_276)"/>
<path d="M228.234 148.285L231.746 178.722L260.651 176.081L259.359 147.12L248.825 144.535L228.234 148.285Z" fill="url(#paint5_linear_662_276)"/>
<path d="M257.955 176.347L258.292 155.223L279.079 153.229L282.071 158.215L281.565 174.521L257.955 176.347Z" fill="#FF3333"/>
<path d="M273.995 139.395L273.883 152.611H264.978L260.82 142.204L273.995 139.395Z" fill="#F2E3A5"/>
<path d="M250.706 145.236L250.931 175.912L233.852 176.375L240.874 146.641L250.706 145.236Z" fill="#F2E3A5"/>
<path d="M266.438 156.416L263.629 173.622L274.809 173.102L276.804 155.012L266.438 156.416Z" fill="#F2E3A5"/>
<path d="M227.756 262.756L222.615 281.478L239.694 281.956L243.683 263.219L227.756 262.756Z" fill="#F2E3A5"/>
<path d="M251.633 258.542L253.276 281.253L268.726 281.955L272.476 255.732L251.633 258.542Z" fill="#F2E3A5"/>
<path d="M76.1914 255.789L101.291 247.854L124.03 251.281L121.46 293.768L80.6859 293.122L76.1914 255.789Z" fill="url(#paint6_linear_662_276)"/>
<path opacity="0.2" d="M108.96 249.117C108.96 249.117 106.347 266.758 111.797 269.652C117.247 272.545 118.511 268.163 118.511 268.163C118.511 268.163 111.769 261.056 114.676 249.637L108.96 249.117Z" fill="#431F00"/>
<path d="M168.893 293.655L174.862 157.357L178.247 157.526L173.106 293.655H168.893Z" fill="#A89851"/>
<path d="M194.581 150.826C192.544 150.826 190.873 153.481 190.606 156.908C190.564 157.371 190.325 160.321 189.946 165.026L174.566 165.588C176.56 164.9 177.923 161.346 178.134 158.046C178.386 154.253 176.729 152.048 174.327 152.048C172.136 152.048 170.17 154.647 169.65 157.989C169.144 161.346 148.189 293.612 148.919 294.722C149.649 295.817 151.124 296.351 152.304 295.565C152.557 295.396 153.582 289.427 155.057 280.157L180.83 279.848C180.1 290.003 179.693 296.562 179.861 296.815C180.606 297.938 182.01 298.472 183.064 297.671C184.103 296.871 193.008 167.835 193.204 164.787C193.415 161.739 193.71 158.298 193.879 157.062C194.089 155.447 194.37 154.548 195.016 154.197C195.297 154.352 195.255 154.731 195.424 156.922C195.522 158.158 195.606 163.973 195.508 164.759C197.404 164.197 198.612 161.318 198.612 157.849C198.612 153.972 196.814 150.826 194.581 150.826ZM173.161 158.144C173.499 156.571 173.85 155.686 174.58 155.335C174.875 155.489 174.805 155.854 174.833 157.989C174.861 159.169 174.58 164.647 174.412 165.588L171.925 165.672C172.347 162.723 172.895 159.352 173.161 158.144ZM171.322 169.928L189.567 169.605C189.244 173.51 188.864 178.159 188.443 183.341L169.313 183.903C170.17 177.948 170.872 173.116 171.322 169.928ZM161.771 237.332L161.419 238.119C162.094 233.54 162.768 228.919 163.442 224.34L185.156 224.031C184.819 228.259 184.482 232.486 184.145 236.686L161.771 237.332ZM183.78 241.223C183.274 247.557 182.797 253.723 182.347 259.51L158.119 260.156C159.004 254.285 159.945 247.993 160.9 241.56L183.78 241.223ZM164.06 220.098C164.833 214.803 165.591 209.62 166.307 204.662L186.729 204.367C186.336 209.269 185.929 214.34 185.507 219.466L164.06 220.098ZM166.925 200.421C167.557 196.053 168.161 191.937 168.695 188.145L188.064 187.864C187.755 191.656 187.432 195.659 187.095 199.817L166.925 200.421ZM155.717 275.943C156.265 272.404 156.869 268.527 157.487 264.384L181.996 264.075C181.687 268.078 181.406 271.856 181.153 275.311L155.717 275.943Z" fill="#A89851"/>
<g opacity="0.8">
<path d="M169.44 175.436L166.307 179.312C160.296 217.572 148.371 293.895 148.933 294.724C149.467 295.51 150.366 296.002 151.279 295.917L169.44 175.436Z" fill="#F2E3A5"/>
<path d="M190.606 156.909C190.564 157.372 190.325 160.322 189.946 165.027L177.572 165.477L176.996 169.803L189.567 169.578C189.244 173.482 188.864 178.131 188.443 183.314L175.17 183.708L174.594 188.048L188.078 187.851C187.769 191.643 187.446 195.646 187.109 199.804L172.993 200.211L172.417 204.537L186.729 204.326C186.336 209.228 185.929 214.299 185.507 219.425L170.381 219.875L169.805 224.201L185.128 223.976C184.791 228.204 184.454 232.431 184.117 236.631L168.091 237.094L167.515 241.406L183.738 241.167C183.232 247.502 182.755 253.668 182.305 259.455L165.057 259.904L164.481 264.216L181.94 263.991C181.631 267.994 181.35 271.773 181.097 275.228L162.965 275.677L162.389 280.003L180.76 279.778C180.03 289.933 179.622 296.493 179.791 296.745C180.283 297.476 181.041 297.953 181.799 297.981L191.842 152.555C191.224 153.706 190.746 155.223 190.606 156.909Z" fill="#F2E3A5"/>
</g>
<path d="M198.668 158.172C198.668 157.778 198.64 157.399 198.611 157.02V156.95C198.274 153.593 196.575 150.84 194.594 150.84C192.558 150.84 190.886 153.494 190.62 156.922C190.606 157.188 190.507 158.228 190.381 159.885L193.274 163.916C193.471 161.107 193.738 158.172 193.892 157.062C194.103 155.447 194.384 154.548 195.03 154.197C195.311 154.351 195.269 154.73 195.437 156.922V156.95H195.423L193.471 294.356L197.221 294.595L198.597 159.66C198.64 159.07 198.668 158.565 198.668 158.172Z" fill="#A89851"/>
<path d="M174.819 146.642C174.819 146.642 167.825 164.213 180.929 158.244C187.46 154.634 188.921 152.667 188.921 152.667L191.87 156.221C191.87 156.221 177.558 171.713 170.226 163.089C163.625 154.479 168.134 146.15 168.134 146.15L174.819 146.642Z" fill="#FF0303"/>
<path opacity="0.3" d="M174.819 146.642C174.819 146.642 167.825 164.213 180.929 158.244C187.46 154.634 187.615 156.6 187.615 156.6L191.87 156.221C191.87 156.221 177.558 171.713 170.226 163.089C163.625 154.479 168.134 146.15 168.134 146.15L174.819 146.642Z" fill="#673B00"/>
<path d="M163.737 246.251L163.625 250.704L164.903 250.577L165.381 245.549L163.737 246.251Z" fill="#A38571"/>
<path d="M174.567 178.327C169.019 162.077 176.547 153.172 175.086 147.582C173.71 142.273 155.886 143.129 153.779 152.961C149.046 163.804 155.605 189.1 157.796 196.811C159.229 211.166 163.148 246.602 163.148 246.602L165.957 246.841L168.569 192.935C173.148 188.932 195.691 170.869 182.615 214.536L185.508 214.888C185.733 214.185 205.677 170.251 174.567 178.327Z" fill="url(#paint7_linear_662_276)"/>
<path d="M156.279 148.51C155.057 149.718 154.158 151.192 153.779 152.976C152.108 156.811 151.841 162.443 152.304 168.468C152.375 168.412 152.431 168.37 152.487 168.314C165.03 156.361 160.198 149.83 156.279 148.51Z" fill="#7EB7C4"/>
<path d="M164.439 156.247C169.187 153.972 171.111 153.087 171.111 153.087C171.111 153.087 173.218 148.775 172.178 145.025C168.484 143.719 162.15 144.295 157.908 147.16C157.922 147.202 157.922 147.244 157.936 147.286C157.936 147.286 164.257 152.202 164.439 156.247Z" fill="#7EB7C4"/>
<path opacity="0.3" d="M182.614 214.537L185.507 214.888C185.746 214.186 205.676 170.252 174.566 178.328C169.018 162.077 176.546 153.172 175.085 147.582C174.215 144.211 166.714 143.34 160.801 145.658V145.714C160.801 145.714 161.504 158.116 152.486 163.622C154.425 165.027 158.105 171.347 160.043 179.774C160.534 182.457 161.026 186.741 161.489 191.882C161.574 192.738 159.439 198.005 159.523 198.904C159.621 200.042 161.883 194.901 161.981 196.095C163.568 216.461 164.79 246.013 164.79 246.013L165.956 246.827L168.568 192.921C173.147 188.932 195.69 170.87 182.614 214.537Z" fill="#673B00"/>
<path d="M101.291 247.854L77.9473 256.899L80.6861 293.122L100.968 293.445L101.291 247.854Z" fill="#F2E3A5"/>
<path opacity="0.4" d="M79.8164 258.541L88.2437 272.347L82.162 290.845L89.887 274.229L98.1457 290.55L91.5163 271.645L98.0755 252.684L89.6482 269.313L79.8164 258.541Z" fill="#12263F"/>
<path d="M165.142 257.375C166.083 248.835 163.738 249.537 162.797 249.537C161.855 249.537 163.85 253.049 163.148 257.262C163.148 261.139 167.361 259.833 168.302 259.833C169.243 259.833 167.361 259.594 165.142 257.375Z" fill="#431F00"/>
<path d="M163.134 249.51C163.134 249.51 159.988 249.44 162.249 252.712L163.612 252.782L163.134 249.51Z" fill="#431F00"/>
<path d="M181.168 218.398C181.168 218.398 180.409 221.446 184.103 219.957L184.468 218.637L181.168 218.398Z" fill="#431F00"/>
<path d="M183.134 214.706L182.516 217.079L183.667 217.866L184.805 214.537L183.134 214.706Z" fill="#A38571"/>
<path d="M192.179 220.674C192.235 220.21 189.889 219.34 186.729 218.483C183.485 217.612 182.319 216.362 182.249 216.811C182.193 217.275 179.44 219.003 182.684 219.452C185.943 219.887 192.109 221.137 192.179 220.674Z" fill="#431F00"/>
<path d="M162.318 145.995L162.094 133.621L168.063 138.93C168.063 138.93 169.173 141.36 170.058 145.335C168.063 151.08 162.318 145.995 162.318 145.995Z" fill="#FFB38A"/>
<path opacity="0.3" d="M170.058 145.335C169.173 141.36 168.064 138.93 168.064 138.93L165.311 136.486L162.207 136.711L162.15 136.809L162.235 141.725L166.926 148.074C168.162 148.032 169.342 147.372 170.058 145.335Z" fill="#673B00"/>
<path d="M162.15 131.402C161.433 129.534 159.72 128.452 158.343 128.972C156.953 129.506 156.405 131.458 157.121 133.326C157.838 135.194 159.551 136.276 160.928 135.756C162.332 135.222 162.866 133.27 162.15 131.402Z" fill="#E59673"/>
<path opacity="0.3" d="M162.557 131.471C161.967 129.926 160.422 129.098 159.102 129.603C157.782 130.109 157.192 131.766 157.782 133.297C158.371 134.828 159.916 135.671 161.237 135.165C162.557 134.674 163.147 133.016 162.557 131.471Z" fill="#673B00"/>
<path d="M178.57 131.697C178.528 131.318 178.457 130.939 178.345 130.56C176.716 125.11 176.027 117.849 171.266 118.031C157.881 114.927 159.945 125.897 160.156 131.571C160.226 133.72 160.858 135.686 161.856 137.302C163.035 140.532 166.87 142.821 171.336 142.653C176.631 142.456 180.789 138.917 180.648 134.745C180.578 133.06 179.792 132.245 178.57 131.697Z" fill="#E59673"/>
<path d="M178.302 130.559C177.137 126.177 176.476 118.916 172.08 118.859C159.453 115.446 160.942 125.475 160.9 130.629C160.886 132.582 161.392 134.394 162.276 135.897C163.26 138.874 166.813 141.121 171.083 141.178C176.139 141.248 180.269 138.228 180.297 134.436C180.311 132.905 179.595 131.781 178.302 130.559Z" fill="#FFB38A"/>
<path d="M162.151 127.272C162.151 127.272 162.32 132.455 162.502 133.242C162.671 134.028 161.449 135.18 161.449 135.18C161.449 135.18 159.777 128.775 159.426 126.921C159.089 125.081 162.151 127.272 162.151 127.272Z" fill="#4C3F32"/>
<path d="M159.988 128.971L167.488 121.007L176.14 120.783L173.219 112.65L162.039 113.872L156.477 121.597L159.988 128.971Z" fill="#7EB7C4"/>
<path d="M162.039 113.872L164.848 120.193L175.916 120.024L173.219 112.65L162.039 113.872Z" fill="#4A7C84"/>
<path d="M171.925 116.388C171.925 115.475 170.619 114.73 168.99 114.73C167.375 114.73 166.068 115.475 166.068 116.402C166.068 117.315 167.375 118.059 168.99 118.059C170.619 118.059 171.925 117.301 171.925 116.388Z" fill="#7EB7C4"/>
<path d="M176.139 122.244L178.709 120.137C178.639 118.044 177.066 116.303 175.001 116.022L173.569 115.825C171.813 115.586 170.015 115.867 168.4 116.626L168.119 116.752C166.701 117.426 165.521 118.522 164.748 119.87L159.748 128.55L160.155 128.901L168.175 121.766L176.139 122.244Z" fill="#7EB7C4"/>
<path d="M176.617 122.652L179.187 120.545C179.117 118.452 177.544 116.711 175.479 116.43L174.047 116.233C172.291 115.994 170.493 116.275 168.878 117.034L168.429 117.244C167.108 117.877 165.999 118.86 165.226 120.082L159.805 128.621L160.043 129.029C160.043 129.029 168.639 122.174 168.639 122.188L176.617 122.652Z" fill="#4A7C84"/>
<path d="M170.479 127.244C169.777 127.637 170.114 129.786 171.167 131.893C172.445 134.14 174.608 133.761 175.31 133.368C177.277 129.534 173.527 132.188 170.479 127.244Z" fill="#EA5D49"/>
<path d="M167.782 129.702C167.585 128.972 167.15 128.466 166.813 128.55C166.462 128.649 166.349 129.309 166.532 130.039C166.728 130.769 167.164 131.275 167.501 131.191C167.852 131.092 167.979 130.432 167.782 129.702Z" fill="#4C3F32"/>
<path d="M175.016 128.1C174.82 127.37 174.384 126.864 174.047 126.949C173.696 127.047 173.584 127.707 173.766 128.437C173.963 129.168 174.398 129.673 174.735 129.589C175.086 129.491 175.199 128.831 175.016 128.1Z" fill="#4C3F32"/>
<path d="M176.098 134.786C175.592 135.938 174.412 136.823 173.064 136.949C172.109 137.033 171.266 136.71 170.704 136.121L170.143 136.261C170.718 137.076 171.8 137.567 173.064 137.455C174.778 137.3 176.238 136.106 176.575 134.674L176.098 134.786Z" fill="#4C3F32"/>
<path d="M164.327 128.733C164.327 128.733 167.136 126.331 167.543 126.331C167.95 126.331 167.374 124.982 167.374 124.982C167.374 124.982 163.807 127.145 163.807 127.384C163.793 127.623 164.327 128.733 164.327 128.733Z" fill="#4C3F32"/>
<path d="M172.685 125.405C172.685 125.405 174.792 124.998 175.607 125.868C176.421 126.739 175.55 124.169 175.55 124.169C175.55 124.169 172.741 123.579 172.446 123.762C172.151 123.944 172.685 125.405 172.685 125.405Z" fill="#4C3F32"/>
<path d="M174.371 132.469C174.595 132.16 174.441 131.64 174.005 131.317C173.584 130.994 173.05 130.966 172.812 131.275C172.587 131.584 172.741 132.104 173.177 132.427C173.598 132.764 174.132 132.778 174.371 132.469Z" fill="#FFB38A"/>
<path d="M154.258 187.148L172.039 172.625L174.146 174.971L156.126 191.362L154.258 187.148Z" fill="#673B00"/>
<path opacity="0.3" d="M155.184 190.181L169.468 176.613L172.038 180.125L157.29 193.468L155.184 190.181Z" fill="#431F00"/>
<path d="M158.484 157.975L170.283 150.096L183.527 154.267L182.151 175.911L171.799 185.827L162.122 180.631L158.484 157.975Z" fill="url(#paint8_linear_662_276)"/>
<path d="M158.611 158.789L162.123 180.63L171.8 185.827L172.278 163.031L158.611 158.789Z" fill="url(#paint9_linear_662_276)"/>
<path opacity="0.3" d="M159.061 159.281L164.44 169.942L162.684 180.476L165.732 171.22L171.112 184.338L166.547 170.166L170.297 163.621L165.381 169.239L159.061 159.281Z" fill="#673B00"/>
<path d="M154.65 150.532C154.65 150.532 140.885 179.311 158.821 179.058C162.656 178.96 168.401 176.235 168.401 176.235L167.263 171.193C167.263 171.193 153.906 177.12 154.959 169.044C157.066 158.889 158.934 155.996 158.934 155.996C158.934 155.996 159.72 147.077 154.65 150.532Z" fill="#7EB7C4"/>
<path d="M171.799 185.828L181.42 175.729L182.389 169.1L182.305 175.813L171.799 185.828Z" fill="url(#paint10_linear_662_276)"/>
<path opacity="0.8" d="M160.339 182.457L160.803 187.148L156.126 191.362L154.258 187.148L160.339 182.457Z" fill="#F2E3A5"/>
<path d="M159.523 198.905L163.386 192.416L161.799 189.424L159.523 198.905Z" fill="#77A3BC"/>
<path opacity="0.7" d="M108.959 249.117C108.959 249.117 106.319 269.132 117.738 268.612C117.738 268.612 119.142 265.269 121.6 265.269C121.6 265.269 111.937 266.323 114.409 249.988L108.959 249.117Z" fill="#F2E3A5"/>
<path opacity="0.4" d="M106.502 146.065L122.191 166.304L115.28 186.094L124.059 167.835L138.806 184.338L126.868 164.675L134.944 142.904L123.356 163.972L106.502 146.065Z" fill="#12263F"/>
<path opacity="0.2" d="M110.014 219.102L119.143 228.232L113.876 239.468L121.601 230.339L130.38 237.01L122.655 226.827L130.731 214.889L120.899 225.072L110.014 219.102Z" fill="#431F00"/>
<path d="M123.595 97.2578L126.404 126.978L106.502 128.621L102.99 100.994L123.595 97.2578Z" fill="#F2E3A5"/>
<path d="M105.098 101.935L112.359 113.635L107.668 126.051L114.227 115.517L124.523 125.11L116.334 113.41L122.654 98.6621L114.691 110.601L105.098 101.935Z" fill="url(#paint11_linear_662_276)"/>
<path opacity="0.2" d="M229.752 149.225L239.05 163.088L233.263 176.965L240.806 164.844L250.286 175.56L242.21 162.919L250.286 146.936L240.103 160.461L229.752 149.225Z" fill="#431F00"/>
<path opacity="0.2" d="M252.574 259.483L258.895 270.017L253.979 279.848L261.001 271.646L270.37 280.551L262.645 269.076L272.477 255.732L261.001 266.73L252.574 259.483Z" fill="#431F00"/>
<path d="M258.896 156.951L265.034 163.622L259.599 172.921L266.621 165.378L274.108 173.103L268.546 163.974L275.4 155.715L266.79 162.569L258.896 156.951Z" fill="#282B2E"/>
<path d="M131.896 127.567L130.73 115.39L143.133 113.283L148.99 116.331V126.275L131.896 127.567Z" fill="#282B2E"/>
<g opacity="0.7">
<path d="M142.303 124.042L142.57 124L142.05 115.277L140.098 119.954L142.303 124.042Z" fill="#F2E3A5"/>
<path d="M137.164 117.975L142.038 115.053L142.024 114.814L134.678 116.064L137.164 117.975Z" fill="#F2E3A5"/>
<path d="M135.758 120.194L134.423 118.537L133.777 125.11L135.758 120.194Z" fill="#F2E3A5"/>
<path d="M137.865 121.838L133.764 125.321L133.75 125.462L141.798 124.127L137.865 121.838Z" fill="#F2E3A5"/>
</g>
<path d="M239.231 230.337L236.773 199.788L264.162 195.926L276.101 202.949L275.75 228.23L239.231 230.337Z" fill="#FF0000"/>
<path d="M262.828 197.682L264.092 227.627L240.454 228.582L238.234 201.151L262.828 197.682Z" fill="#F2E3A5"/>
<path d="M238.881 201.895L246.957 212.893L240.454 228.581L249.064 215.238L264.092 227.626L251.409 213.131L262.407 199.086L248.713 211.025L238.881 201.895Z" fill="#6F7173"/>
<path opacity="0.3" d="M160.043 129.028L171.715 131.668C171.715 131.668 178.822 131.401 178.344 130.559C177.572 127.96 177.249 124.94 176.111 122.539C172.74 122.37 168.653 122.188 168.653 122.188L160.043 129.028Z" fill="#673B00"/>
<path d="M183.527 154.267L170.283 150.096L158.484 157.975L172.277 163.032L183.527 154.267Z" fill="#F2E3A5"/>
<path opacity="0.3" d="M172.276 163.032L171.799 185.828L182.15 175.912L182.81 156.01L172.276 163.032Z" fill="#431F00"/>
<path d="M180.62 177.387L171.8 185.828L162.122 180.632L161.869 178.721L168.302 176.376L167.249 171.348L160.816 173.216L158.625 158.791L158.499 157.99L170.297 150.111L175.03 151.6C175.311 150.097 175.409 148.762 175.114 147.597C174.679 145.911 172.586 144.858 169.875 144.507C169.707 143.804 169.524 143.144 169.356 142.568C170.002 142.653 170.662 142.709 171.336 142.681C176.631 142.484 180.789 138.945 180.648 134.773C180.592 133.102 179.806 132.273 178.584 131.725C178.541 131.346 178.471 130.967 178.359 130.588C177.586 128.017 177.025 125.054 176.154 122.652L176.631 122.68L179.202 120.573C179.131 118.48 177.558 116.739 175.494 116.458L174.553 116.332L173.232 112.68L162.052 113.916L156.49 121.641L159.833 128.649V128.663L159.889 128.748L160.015 129.015L160.029 129.001C160.029 129.029 160.029 129.057 160.029 129.085C159.482 128.86 158.892 128.818 158.358 129.029C156.968 129.562 156.42 131.515 157.136 133.383C157.852 135.251 159.566 136.332 160.942 135.813C160.985 135.799 161.013 135.77 161.055 135.756C161.294 136.318 161.546 136.866 161.855 137.358C161.94 137.596 162.066 137.807 162.178 138.032L162.305 145.209C159.173 146.136 156.279 147.878 154.748 150.546C154.706 150.574 154.678 150.574 154.65 150.602C154.65 150.602 144.116 172.654 153.498 177.977C154.833 185.927 156.785 193.301 157.81 196.868C159.243 211.223 163.162 246.659 163.162 246.659L165.971 246.898L168.583 192.992C173.162 188.989 195.705 170.926 182.629 214.594L185.522 214.945C185.719 214.242 202.812 176.53 180.62 177.387Z" fill="url(#paint12_linear_662_276)"/>
<path d="M167.6 172.569L173.92 169.76C173.92 169.76 176.729 170.294 176.561 171.333C176.392 172.372 172.516 173.524 172.516 173.524L167.951 173.791L167.6 172.569Z" fill="#FFB38A"/>
<path d="M190.607 152.962L194.933 151.768C194.933 151.768 196.927 151.304 196.394 150.532C195.86 149.773 192.292 150.068 192.292 150.068L190.48 151.852L190.607 152.962Z" fill="#FFB38A"/>
<path d="M176.659 165.041C176.448 164.929 175.423 166.418 174.384 168.37C173.344 170.322 172.67 172.008 172.895 172.12C173.105 172.232 174.131 170.744 175.17 168.791C176.21 166.839 176.884 165.168 176.659 165.041Z" fill="#FFB38A"/>
<path d="M178.204 164.745C177.98 164.647 177.081 166.135 176.21 168.074C175.339 170.012 174.819 171.669 175.058 171.768C175.283 171.866 176.182 170.377 177.053 168.439C177.909 166.501 178.443 164.857 178.204 164.745Z" fill="#FFB38A"/>
<path d="M179.187 165.911C179.005 165.813 178.148 167.133 177.249 168.833C176.364 170.546 175.774 172.007 175.957 172.091C176.126 172.176 176.996 170.869 177.895 169.17C178.78 167.456 179.37 165.996 179.187 165.911Z" fill="#FFB38A"/>
<path d="M171.252 170.926C171.252 170.926 172.39 169.704 172.544 169.24C172.699 168.777 172.825 167.302 172.614 166.53C172.432 165.869 173.26 165.926 173.387 166.445C173.513 166.951 173.682 168.257 173.471 169.17C173.345 169.746 173.204 170.476 172.741 171.151C172.291 171.811 171.252 170.926 171.252 170.926Z" fill="#FFB38A"/>
<path d="M197.068 154.071C197.307 154.057 197.124 152.821 197.307 151.403C197.461 150.153 195.2 150.153 194.947 150.167C194.708 150.181 196.562 150.686 196.646 151.936C196.731 153.186 196.815 154.085 197.068 154.071Z" fill="#FFB38A"/>
<path d="M196.561 154.999C196.8 154.957 196.687 153.44 196.392 151.979C196.097 150.504 194.594 150.785 194.342 150.841C194.089 150.883 195.451 150.926 195.746 152.386C196.041 153.847 196.322 155.041 196.561 154.999Z" fill="#FFB38A"/>
<path d="M195.943 156.137C196.182 156.052 195.929 154.648 195.395 152.99C194.861 151.333 193.26 151.024 193.035 151.108C192.811 151.193 194.019 151.614 194.552 153.285C195.086 154.929 195.718 156.207 195.943 156.137Z" fill="#FFB38A"/>
<path d="M191.014 152.497C191.014 152.497 192.264 153.382 192.46 153.747C192.657 154.112 192.966 155.32 192.854 155.994C192.755 156.57 193.556 156.416 193.612 155.98C193.668 155.545 193.668 154.435 193.373 153.705C193.177 153.242 192.952 152.638 192.432 152.146C191.884 151.64 191.014 152.497 191.014 152.497Z" fill="#FFB38A"/>
<path d="M190.776 154.956L191.534 152.68L190.481 151.852L189.666 153.551L190.776 154.956Z" fill="#FFB38A"/>
<defs>
<linearGradient id="paint0_linear_662_276" x1="103.691" y1="164.846" x2="148.987" y2="164.846" gradientUnits="userSpaceOnUse">
<stop stop-color="#EAD67F"/>
<stop offset="0.9946" stop-color="#EAB57D"/>
</linearGradient>
<linearGradient id="paint1_linear_662_276" x1="106.908" y1="226.589" x2="140.618" y2="226.589" gradientUnits="userSpaceOnUse">
<stop stop-color="#EAD67F"/>
<stop offset="0.9946" stop-color="#EAB57D"/>
</linearGradient>
<linearGradient id="paint2_linear_662_276" x1="149.573" y1="269.31" x2="180.004" y2="269.31" gradientUnits="userSpaceOnUse">
<stop stop-color="#EAD67F"/>
<stop offset="0.9946" stop-color="#EAB57D"/>
</linearGradient>
<linearGradient id="paint3_linear_662_276" x1="249.53" y1="269.31" x2="279.961" y2="269.31" gradientUnits="userSpaceOnUse">
<stop stop-color="#EAD67F"/>
<stop offset="0.9946" stop-color="#EAB57D"/>
</linearGradient>
<linearGradient id="paint4_linear_662_276" x1="102.052" y1="112.938" x2="134.824" y2="112.938" gradientUnits="userSpaceOnUse">
<stop stop-color="#EAD67F"/>
<stop offset="0.9946" stop-color="#EAB57D"/>
</linearGradient>
<linearGradient id="paint5_linear_662_276" x1="228.228" y1="161.628" x2="260.649" y2="161.628" gradientUnits="userSpaceOnUse">
<stop stop-color="#EAD67F"/>
<stop offset="0.9946" stop-color="#EAB57D"/>
</linearGradient>
<linearGradient id="paint6_linear_662_276" x1="76.1847" y1="270.81" x2="124.037" y2="270.81" gradientUnits="userSpaceOnUse">
<stop stop-color="#EAD67F"/>
<stop offset="0.9946" stop-color="#EAB57D"/>
</linearGradient>
<linearGradient id="paint7_linear_662_276" x1="193.004" y1="250.568" x2="155.081" y2="165.594" gradientUnits="userSpaceOnUse">
<stop stop-color="#597B84"/>
<stop offset="1" stop-color="#599ABF"/>
</linearGradient>
<linearGradient id="paint8_linear_662_276" x1="197.175" y1="173.348" x2="151.177" y2="163.867" gradientUnits="userSpaceOnUse">
<stop stop-color="#AF506D"/>
<stop offset="0.9946" stop-color="#FF8C68"/>
</linearGradient>
<linearGradient id="paint9_linear_662_276" x1="196.082" y1="178.666" x2="150.081" y2="169.185" gradientUnits="userSpaceOnUse">
<stop stop-color="#AF506D"/>
<stop offset="0.9946" stop-color="#FF6445"/>
</linearGradient>
<linearGradient id="paint10_linear_662_276" x1="171.803" y1="177.464" x2="182.388" y2="177.464" gradientUnits="userSpaceOnUse">
<stop stop-color="#AF506D"/>
<stop offset="0.9946" stop-color="#FF6445"/>
</linearGradient>
<linearGradient id="paint11_linear_662_276" x1="105.097" y1="112.352" x2="124.526" y2="112.352" gradientUnits="userSpaceOnUse">
<stop stop-color="#EAD67F"/>
<stop offset="0.9946" stop-color="#EAB57D"/>
</linearGradient>
<linearGradient id="paint12_linear_662_276" x1="145.999" y1="144.222" x2="188.837" y2="210.235" gradientUnits="userSpaceOnUse">
<stop stop-color="#FFFCE9"/>
<stop offset="1" stop-color="#FF0000"/>
</linearGradient>
</defs>
</svg>
