<svg width="33" height="25" viewBox="0 0 33 25" fill="none" xmlns="http://www.w3.org/2000/svg">
<path d="M30.3219 9.16211H14.5254V17.9445H30.3219V9.16211Z" fill="#FCBE32"/>
<path d="M15.5499 16.5273H3.57812V24.3612H15.5499V16.5273Z" fill="#FCBE32"/>
<path d="M7.51813 16.5273H0.859375V24.3612H7.51813V16.5273Z" fill="#FFD580"/>
<path d="M21.9905 9.16211H14.5254V17.9445H21.9905V9.16211Z" fill="#FFD580"/>
<path d="M12.8305 10.4727H3.57812V16.5271H12.8305V10.4727Z" fill="#FCBE32"/>
<path d="M32.3137 17.9453H12.4395V20.7759H32.3137V17.9453Z" fill="#FF0000"/>
<path d="M30.3151 20.7754H14.0566V22.755H30.3151V20.7754Z" fill="#FF0000"/>
<path d="M27.3263 0.914062H14.5254V6.93167H27.3263V0.914062Z" fill="#FFE6E6"/>
<path d="M25.6143 6.15385H16.2312C15.8209 6.15385 15.4883 5.82127 15.4883 5.41095V2.43626C15.4883 2.02594 15.8209 1.69336 16.2312 1.69336H25.6143C26.0246 1.69336 26.3572 2.02594 26.3572 2.43626V5.41095C26.3572 5.82127 26.0246 6.15385 25.6143 6.15385Z" fill="#FF0000"/>
<path d="M18.1854 6.93164H15.9551V9.162H18.1854V6.93164Z" fill="#FFE6E6"/>
<path d="M16.34 22.7539H15.2578V24.3771H16.34V22.7539Z" fill="#FF0000"/>
<path d="M29.9103 22.7539H28.8281V24.3771H29.9103V22.7539Z" fill="#FF0000"/>
<path d="M9.11023 10.4727H7.30469V11.9064H9.11023V10.4727Z" fill="#FFE9C5"/>
<path d="M4.71961 16.5273H2.91406V17.9611H4.71961V16.5273Z" fill="#FFE9C5"/>
<path d="M12.8305 15.7988H3.57812V16.5265H12.8305V15.7988Z" fill="#FFD580"/>
<path d="M30.3219 17.1289H14.5254V17.9448H30.3219V17.1289Z" fill="#FFD580"/>
<path d="M18.6784 9.16211H17.0742V10.7663H18.6784V9.16211Z" fill="#FFE9C5"/>
<path d="M30.3151 20.7754H14.0566V21.4895H30.3151V20.7754Z" fill="#E80000"/>
<path d="M18.1854 6.93164H15.9551V7.37666H18.1854V6.93164Z" fill="#FF0000"/>
<g clip-path="url(#clip0_1380_7969)">
<path d="M25.54 4.44759H24.6074V4.13672H25.54V4.44759ZM26.1618 5.69107H25.2292V5.3802H26.1618V5.69107ZM25.8509 5.06933H24.9183V4.75846H25.8509V5.06933Z" fill="white"/>
<path d="M24.1403 4.44627C24.1392 4.31513 24.1041 4.18652 24.0387 4.07288C23.9732 3.95924 23.8795 3.86444 23.7667 3.79764L24.917 1.80387L24.6481 1.64844L23.4704 3.68868C23.3259 3.6564 23.1755 3.66088 23.0332 3.70169C22.8908 3.7425 22.7609 3.81835 22.6555 3.9223C22.0735 4.48357 22.1186 5.79576 22.1208 5.8514C22.1224 5.89154 22.1394 5.9295 22.1684 5.95731C22.1974 5.98513 22.236 6.00065 22.2762 6.00062H24.6063C24.6389 6.00062 24.6707 5.99036 24.6972 5.97128C24.7237 5.95221 24.7435 5.92529 24.7538 5.89434C24.7641 5.86339 24.7644 5.82998 24.7547 5.79884C24.745 5.7677 24.7257 5.74041 24.6996 5.72084C24.1493 5.308 24.1403 4.45466 24.1403 4.44627ZM23.3518 3.9795C23.4762 3.98086 23.5953 4.03014 23.6843 4.11708C23.7733 4.20402 23.8253 4.32193 23.8296 4.44627C23.8296 4.45218 23.8299 4.4786 23.8323 4.51917L22.9152 4.11131C22.9756 4.06149 23.0453 4.02419 23.1203 4.00156C23.1952 3.97893 23.2739 3.97143 23.3518 3.9795ZM23.8989 5.68975C23.7747 5.56324 23.6955 5.39939 23.6736 5.22344H23.3627C23.3738 5.38887 23.4255 5.54901 23.5131 5.68975H23.1676C23.1037 5.48804 23.0648 5.27922 23.0518 5.06801H22.7409C22.7509 5.27859 22.7856 5.48727 22.8443 5.68975H22.4301C22.4349 5.40437 22.4751 4.77393 22.7103 4.36031L23.8812 4.88102C23.9373 5.17317 24.0573 5.44932 24.2325 5.68975H23.8989Z" fill="white"/>
</g>
<g clip-path="url(#clip1_1380_7969)">
<path d="M19.801 4.1977H18.8488V4.19522C18.8485 4.09541 18.8087 3.99977 18.7381 3.92919C18.6676 3.85861 18.5719 3.81883 18.4721 3.81853H18.4654L19.2 1.83925L18.8701 1.7168L18.0903 3.81853H18.0828C17.983 3.81883 17.8874 3.85861 17.8168 3.92919C17.7462 3.99977 17.7064 4.09541 17.7061 4.19522V4.1977H16.7539V4.57858H19.801V4.1977ZM19.801 4.76941H16.7539L16.373 5.52775H20.1819L19.801 4.76941Z" fill="white"/>
</g>
<defs>
<clipPath id="clip0_1380_7969">
<rect width="4.97392" height="4.97392" fill="white" transform="translate(21.502 1.33789)"/>
</clipPath>
<clipPath id="clip1_1380_7969">
<rect width="4.57063" height="4.57063" fill="white" transform="translate(15.9941 1.33789)"/>
</clipPath>
</defs>
</svg>
